<mxfile host="app.diagrams.net" modified="2023-10-12T18:54:34.425Z" agent="Mozilla/5.0 (Macintosh; Intel Mac OS X 10_15_7) AppleWebKit/537.36 (KHTML, like Gecko) Chrome/116.0.0.0 Safari/537.36" etag="VeCgfrwfCKNACr2LHh80" version="22.0.4" type="device">
  <diagram name="Page-1" id="JBOXGHTPe8i9dbkMzuEF">
    <mxGraphModel dx="1399" dy="930" grid="1" gridSize="10" guides="1" tooltips="1" connect="1" arrows="1" fold="1" page="1" pageScale="1" pageWidth="850" pageHeight="1100" math="0" shadow="0">
      <root>
        <mxCell id="0" />
        <mxCell id="1" parent="0" />
        <mxCell id="BH-FJEKS01s8CVu1ewul-25" value="" style="group" parent="1" vertex="1" connectable="0">
          <mxGeometry x="80" y="80" width="319" height="160" as="geometry" />
        </mxCell>
        <mxCell id="BH-FJEKS01s8CVu1ewul-24" value="" style="group" parent="BH-FJEKS01s8CVu1ewul-25" vertex="1" connectable="0">
          <mxGeometry width="319.00000000000006" height="160" as="geometry" />
        </mxCell>
        <mxCell id="BH-FJEKS01s8CVu1ewul-17" value="" style="rounded=0;whiteSpace=wrap;html=1;" parent="BH-FJEKS01s8CVu1ewul-24" vertex="1">
          <mxGeometry width="319.00000000000006" height="160" as="geometry" />
        </mxCell>
        <mxCell id="BH-FJEKS01s8CVu1ewul-23" value="" style="endArrow=none;html=1;rounded=0;" parent="BH-FJEKS01s8CVu1ewul-24" edge="1">
          <mxGeometry width="50" height="50" relative="1" as="geometry">
            <mxPoint x="160" y="160" as="sourcePoint" />
            <mxPoint x="160" y="40" as="targetPoint" />
          </mxGeometry>
        </mxCell>
        <mxCell id="BH-FJEKS01s8CVu1ewul-1" value="int x, y;&lt;br&gt;&lt;font color=&quot;#ff3333&quot;&gt;volatile&lt;/font&gt; int v;" style="text;html=1;strokeColor=none;fillColor=none;align=center;verticalAlign=middle;whiteSpace=wrap;rounded=0;" parent="BH-FJEKS01s8CVu1ewul-25" vertex="1">
          <mxGeometry x="78.44262295081968" width="167.344262295082" height="37.647058823529406" as="geometry" />
        </mxCell>
        <mxCell id="BH-FJEKS01s8CVu1ewul-3" value="x = 1;" style="rounded=1;whiteSpace=wrap;html=1;" parent="BH-FJEKS01s8CVu1ewul-25" vertex="1">
          <mxGeometry x="61" y="46" width="84" height="24" as="geometry" />
        </mxCell>
        <mxCell id="BH-FJEKS01s8CVu1ewul-4" value="v = 1;" style="rounded=1;whiteSpace=wrap;html=1;fillColor=#dae8fc;strokeColor=#6c8ebf;" parent="BH-FJEKS01s8CVu1ewul-25" vertex="1">
          <mxGeometry x="61" y="84" width="84" height="24" as="geometry" />
        </mxCell>
        <mxCell id="BH-FJEKS01s8CVu1ewul-5" value="y = 1;" style="rounded=1;whiteSpace=wrap;html=1;" parent="BH-FJEKS01s8CVu1ewul-25" vertex="1">
          <mxGeometry x="61" y="122" width="84" height="24" as="geometry" />
        </mxCell>
        <mxCell id="BH-FJEKS01s8CVu1ewul-6" value="r1 = x;" style="rounded=1;whiteSpace=wrap;html=1;" parent="BH-FJEKS01s8CVu1ewul-25" vertex="1">
          <mxGeometry x="175" y="46" width="84" height="24" as="geometry" />
        </mxCell>
        <mxCell id="BH-FJEKS01s8CVu1ewul-7" value="r2 = v;" style="rounded=1;whiteSpace=wrap;html=1;fillColor=#dae8fc;strokeColor=#6c8ebf;" parent="BH-FJEKS01s8CVu1ewul-25" vertex="1">
          <mxGeometry x="175" y="84" width="84" height="24" as="geometry" />
        </mxCell>
        <mxCell id="BH-FJEKS01s8CVu1ewul-8" value="r3 = y;" style="rounded=1;whiteSpace=wrap;html=1;" parent="BH-FJEKS01s8CVu1ewul-25" vertex="1">
          <mxGeometry x="175" y="122" width="84" height="24" as="geometry" />
        </mxCell>
        <mxCell id="BH-FJEKS01s8CVu1ewul-10" value="" style="curved=1;endArrow=classic;html=1;rounded=0;entryX=0;entryY=0.5;entryDx=0;entryDy=0;fillColor=#dae8fc;strokeColor=#6c8ebf;" parent="BH-FJEKS01s8CVu1ewul-25" target="BH-FJEKS01s8CVu1ewul-4" edge="1">
          <mxGeometry width="50" height="50" relative="1" as="geometry">
            <mxPoint x="62.754098360655746" y="56.470588235294116" as="sourcePoint" />
            <mxPoint x="52.29508196721312" y="103.52941176470588" as="targetPoint" />
            <Array as="points">
              <mxPoint y="75.29411764705881" />
            </Array>
          </mxGeometry>
        </mxCell>
        <mxCell id="BH-FJEKS01s8CVu1ewul-11" value="HB" style="edgeLabel;html=1;align=center;verticalAlign=middle;resizable=0;points=[];labelPosition=left;verticalLabelPosition=middle;" parent="BH-FJEKS01s8CVu1ewul-10" vertex="1" connectable="0">
          <mxGeometry x="-0.4586" y="9" relative="1" as="geometry">
            <mxPoint x="-1" as="offset" />
          </mxGeometry>
        </mxCell>
        <mxCell id="BH-FJEKS01s8CVu1ewul-13" value="" style="curved=1;endArrow=classic;html=1;rounded=0;entryX=0;entryY=0.5;entryDx=0;entryDy=0;fillColor=#dae8fc;strokeColor=#6c8ebf;" parent="BH-FJEKS01s8CVu1ewul-25" edge="1">
          <mxGeometry width="50" height="50" relative="1" as="geometry">
            <mxPoint x="261.4754098360656" y="94.11764705882352" as="sourcePoint" />
            <mxPoint x="261.4754098360656" y="134.58823529411765" as="targetPoint" />
            <Array as="points">
              <mxPoint x="313.77049180327873" y="112.94117647058823" />
            </Array>
          </mxGeometry>
        </mxCell>
        <mxCell id="BH-FJEKS01s8CVu1ewul-14" value="HB" style="edgeLabel;html=1;align=center;verticalAlign=middle;resizable=0;points=[];labelPosition=left;verticalLabelPosition=middle;" parent="BH-FJEKS01s8CVu1ewul-13" vertex="1" connectable="0">
          <mxGeometry x="-0.4586" y="9" relative="1" as="geometry">
            <mxPoint x="-10" y="13" as="offset" />
          </mxGeometry>
        </mxCell>
        <mxCell id="BH-FJEKS01s8CVu1ewul-15" value="" style="endArrow=classic;html=1;rounded=0;exitX=1;exitY=0.5;exitDx=0;exitDy=0;entryX=0;entryY=0.5;entryDx=0;entryDy=0;fillColor=#dae8fc;strokeColor=#6c8ebf;" parent="BH-FJEKS01s8CVu1ewul-25" source="BH-FJEKS01s8CVu1ewul-4" target="BH-FJEKS01s8CVu1ewul-7" edge="1">
          <mxGeometry width="50" height="50" relative="1" as="geometry">
            <mxPoint x="156.88524590163937" y="96" as="sourcePoint" />
            <mxPoint x="230.09836065573774" y="94.11764705882352" as="targetPoint" />
          </mxGeometry>
        </mxCell>
        <mxCell id="BH-FJEKS01s8CVu1ewul-16" value="HB" style="edgeLabel;html=1;align=center;verticalAlign=middle;resizable=0;points=[];" parent="BH-FJEKS01s8CVu1ewul-15" vertex="1" connectable="0">
          <mxGeometry x="-0.025" y="-2" relative="1" as="geometry">
            <mxPoint x="-3" y="-2" as="offset" />
          </mxGeometry>
        </mxCell>
        <mxCell id="BH-FJEKS01s8CVu1ewul-64" value="" style="curved=1;endArrow=open;html=1;rounded=0;dashed=1;fillColor=#d5e8d4;strokeColor=#FF3333;strokeWidth=2;endFill=0;" parent="1" edge="1">
          <mxGeometry width="50" height="50" relative="1" as="geometry">
            <mxPoint x="460" y="135" as="sourcePoint" />
            <mxPoint x="460" y="185" as="targetPoint" />
            <Array as="points">
              <mxPoint x="510" y="155" />
            </Array>
          </mxGeometry>
        </mxCell>
        <mxCell id="BH-FJEKS01s8CVu1ewul-62" value="" style="curved=1;endArrow=open;html=1;rounded=0;dashed=1;fillColor=#d5e8d4;strokeColor=#FF3333;strokeWidth=2;endFill=0;" parent="1" edge="1">
          <mxGeometry width="50" height="50" relative="1" as="geometry">
            <mxPoint x="297" y="202" as="sourcePoint" />
            <mxPoint x="297" y="152" as="targetPoint" />
            <Array as="points">
              <mxPoint x="347" y="172" />
            </Array>
          </mxGeometry>
        </mxCell>
      </root>
    </mxGraphModel>
  </diagram>
</mxfile>
